<?xml version="1.0" encoding="UTF-8"?>
<svg width="24px" height="24px" viewBox="0 0 24 24" version="1.1" xmlns="http://www.w3.org/2000/svg" xmlns:xlink="http://www.w3.org/1999/xlink">
    <!-- Generator: Sketch 55.2 (78181) - https://sketchapp.com -->
    <title>Group 68</title>
    <desc>Created with Sketch.</desc>
    <g id="Page-1" stroke="none" stroke-width="1" fill="none" fill-rule="evenodd">
        <g id="Icons" transform="translate(-288.000000, -289.000000)" fill="#5A5E6F">
            <g id="Group-68" transform="translate(288.000000, 289.000000)">
                <path d="M23.0186,11 L3.5896,11 L13.6946,1.737 C14.1016,1.364 14.1286,0.731 13.7556,0.324 C13.3826,-0.082 12.7496,-0.11 12.3426,0.263 L0.3426,11.263 C0.3366,11.268 0.3336,11.274 0.3286,11.279 C0.2986,11.307 0.2746,11.338 0.2486,11.369 C0.2316,11.39 0.2126,11.408 0.1986,11.43 C0.1726,11.468 0.1516,11.509 0.1306,11.549 C0.1216,11.567 0.1096,11.584 0.1016,11.603 C0.0796,11.654 0.0636,11.707 0.0496,11.762 C0.0476,11.773 0.0416,11.784 0.0396,11.795 C0.0266,11.861 0.0186,11.93 0.0186,12 C0.0186,12.07 0.0266,12.139 0.0396,12.205 C0.0416,12.217 0.0466,12.227 0.0496,12.237 C0.0636,12.292 0.0796,12.347 0.1016,12.397 C0.1096,12.416 0.1216,12.433 0.1306,12.451 C0.1516,12.492 0.1726,12.532 0.1986,12.57 C0.2126,12.592 0.2316,12.61 0.2476,12.631 C0.2746,12.662 0.2986,12.693 0.3286,12.721 C0.3336,12.727 0.3366,12.732 0.3426,12.737 L12.3426,23.737 C12.5346,23.913 12.7766,24 13.0186,24 C13.2886,24 13.5586,23.891 13.7556,23.676 C14.1286,23.269 14.1016,22.637 13.6946,22.263 L3.5896,13 L23.0186,13 C23.5706,13 24.0186,12.553 24.0186,12 C24.0186,11.448 23.5706,11 23.0186,11" id="Fill-328"></path>
            </g>
        </g>
    </g>
</svg>