<?xml version="1.0" encoding="UTF-8"?>
<svg width="24px" height="24px" viewBox="0 0 24 24" version="1.1" xmlns="http://www.w3.org/2000/svg" xmlns:xlink="http://www.w3.org/1999/xlink">
    <!-- Generator: Sketch 55.2 (78181) - https://sketchapp.com -->
    <title>Group 69</title>
    <desc>Created with Sketch.</desc>
    <g id="Page-1" stroke="none" stroke-width="1" fill="none" fill-rule="evenodd">
        <g id="Icons" transform="translate(-336.000000, -289.000000)" fill="#FFFFFF">
            <g id="Group-69" transform="translate(336.000000, 289.000000)">
                <path d="M23.9971,11.7949 C23.9951,11.7839 23.9891,11.7739 23.9871,11.7619 C23.9741,11.7069 23.9581,11.6539 23.9351,11.6039 C23.9281,11.5839 23.9161,11.5679 23.9061,11.5489 C23.8861,11.5089 23.8641,11.4679 23.8391,11.4299 C23.8231,11.4079 23.8051,11.3899 23.7881,11.3689 C23.7631,11.3379 23.7371,11.3069 23.7091,11.2789 C23.7031,11.2749 23.6991,11.2679 23.6941,11.2629 L11.6941,0.2629 C11.2871,-0.1101 10.6541,-0.0821 10.2811,0.3239 C9.9081,0.7319 9.9351,1.3639 10.3431,1.7369 L20.4471,10.9999 L1.0191,10.9999 C0.4661,10.9999 0.0191,11.4479 0.0191,11.9999 C0.0191,12.5529 0.4661,12.9999 1.0191,12.9999 L20.4471,12.9999 L10.3431,22.2629 C9.9351,22.6369 9.9081,23.2689 10.2811,23.6759 C10.4781,23.8919 10.7481,23.9999 11.0191,23.9999 C11.2611,23.9999 11.5021,23.9129 11.6941,23.7369 L23.6941,12.7369 C23.6991,12.7319 23.7031,12.7269 23.7091,12.7209 C23.7381,12.6929 23.7631,12.6619 23.7891,12.6309 C23.8061,12.6109 23.8231,12.5919 23.8391,12.5699 C23.8641,12.5319 23.8861,12.4919 23.9061,12.4509 C23.9161,12.4329 23.9281,12.4159 23.9351,12.3979 C23.9581,12.3469 23.9741,12.2919 23.9871,12.2369 C23.9891,12.2269 23.9951,12.2169 23.9971,12.2049 C24.0111,12.1389 24.0191,12.0699 24.0191,11.9999 C24.0191,11.9299 24.0111,11.8609 23.9971,11.7949" id="Fill-329"></path>
            </g>
        </g>
    </g>
</svg>